# xmcd
#
# Track frame offsets:
#	150
#	14099
#	35295
#	57163
#	71941
#	97264
#	117671
#	142147
#	163619
#	198021
#	220325
#	244567
#	266764
#	293460
# Disc length: 4066 seconds
# Revision: 1
# Processed by: cddbd v1.5.2PL0 Copyright (c) Steve Scherf et al.
#
# Submitted via: libkcddb 0.31
#
DISCID=da0fe00e
DTITLE=Trevor Menear - Introducing
DYEAR=2008
DGENRE=
TTITLE0=Forgot about the Man
TTITLE1=Suffer to be Simple
TTITLE2=Fool's Afternoon
TTITLE3=Reason to Leave
TTITLE4=Bug
TTITLE5=Day in the Drench
TTITLE6=Remember Charlotte
TTITLE7=The Cloud
TTITLE8=Arms of Your Love
TTITLE9=Push
TTITLE10=Hey Train
TTITLE11=Last Bag
TTITLE12=Ants
TTITLE13=Monk's Intermission
EXTD=
EXTT0=
EXTT1=
EXTT2=
EXTT3=
EXTT4=
EXTT5=
EXTT6=
EXTT7=
EXTT8=
EXTT9=
EXTT10=
EXTT11=
EXTT12=
EXTT13=
PLAYORDER=
